<svg width="16" height="16" viewBox="0 0 16 16" fill="none" xmlns="http://www.w3.org/2000/svg">
<path d="M12.6286 3.92344C11.7655 3.54405 10.8426 3.26832 9.87783 3.11133C9.7593 3.31259 9.62088 3.5833 9.52546 3.79865C8.49981 3.65374 7.48359 3.65374 6.47684 3.79865C6.38142 3.5833 6.23982 3.31259 6.1203 3.11133C5.15443 3.26832 4.23051 3.54506 3.36743 3.92545C1.62656 6.39699 1.15464 8.80716 1.3906 11.1831C2.54524 11.9932 3.66421 12.4853 4.7643 12.8073C5.03592 12.4561 5.27817 12.0828 5.48687 11.6893C5.08941 11.5474 4.70873 11.3723 4.34901 11.169C4.44445 11.1026 4.53778 11.0331 4.62797 10.9617C6.8219 11.9258 9.20559 11.9258 11.3733 10.9617C11.4645 11.0331 11.5579 11.1026 11.6522 11.169C11.2915 11.3733 10.9098 11.5484 10.5123 11.6903C10.721 12.0828 10.9622 12.4571 11.2348 12.8083C12.336 12.4863 13.456 11.9942 14.6106 11.1831C14.8875 8.42878 14.1377 6.04075 12.6286 3.92344ZM5.78575 9.72191C5.12716 9.72191 4.58707 9.14425 4.58707 8.44086C4.58707 7.73742 5.11562 7.1588 5.78575 7.1588C6.45588 7.1588 6.99595 7.73641 6.98442 8.44086C6.98549 9.14425 6.45588 9.72191 5.78575 9.72191ZM10.2155 9.72191C9.55692 9.72191 9.01681 9.14425 9.01681 8.44086C9.01681 7.73742 9.54539 7.1588 10.2155 7.1588C10.8856 7.1588 11.4257 7.73641 11.4142 8.44086C11.4142 9.14425 10.8856 9.72191 10.2155 9.72191Z" fill="#1E1E1E"/>
</svg>
